<?xml version="1.0" encoding="UTF-8" standalone="no"?>
<!DOCTYPE svg PUBLIC "-//W3C//DTD SVG 20010904//EN"
              "http://www.w3.org/TR/2001/REC-SVG-20010904/DTD/svg10.dtd">

<svg xmlns="http://www.w3.org/2000/svg"
     width="6.4in" height="3.6in"
     viewBox="0 0 1920 1080">
  <path id="Unnamed #1"
        fill="none" stroke="black" stroke-width="1"
        d="M 971.46,357.27
           C 1012.90,371.32 1068.05,392.56 1101.28,420.30
             1134.85,450.10 1139.30,454.56 1139.99,409.68
             1140.67,364.81 1138.54,328.83 1080.99,330.55
             1016.50,330.42 965.51,335.49 906.53,345.38
             851.09,366.92 797.94,403.47 766.86,439.05
             743.13,488.00 734.72,544.37 737.20,599.25
             753.51,651.17 779.72,693.69 813.34,729.29
             867.23,764.88 932.19,791.66 998.44,802.54
             1089.42,808.97 1139.07,740.47 1137.62,893.22
             1113.85,821.45 1141.01,667.25 1140.04,582.39
             1033.84,582.39 971.77,583.84 1015.42,635.24
             1053.24,691.98 1030.93,701.68 968.86,712.34
             912.13,706.04 869.94,686.64 824.84,652.70
             792.84,609.54 776.35,550.38 779.26,498.49
             798.17,448.06 833.57,404.42 871.40,378.24
             910.67,358.84 941.66,346.95 966.22,341.13" />
</svg>
